<svg xmlns="http://www.w3.org/2000/svg" viewBox="0 0 512 512" id="rupiah"><path fill="#231f20" d="M183.41 314.1L146.18 245H140.6V314.1H88.48V126.64h82.16q22.61 0 38.29 7.84T232.6 156a59.88 59.88 0 0 1 8 30.71q0 19.16-10.51 33.64T199.36 241l42.28 73.12zM140.6 209.33h25.79q10.63 0 16-5.05t5.31-14.62q0-9-5.45-14.23t-15.82-5.19H140.6zM333.64 169.18q11.17-6.12 26.33-6.11a58.61 58.61 0 0 1 32.31 9.3q14.49 9.31 22.86 26.59t8.38 40.42q0 23.13-8.38 40.55t-22.86 26.73A58.61 58.61 0 0 1 360 316q-15.15 0-26.19-6.11a46.52 46.52 0 0 1-17.42-16.49v92H264.24V164.93h52.12v20.74A44.29 44.29 0 0 1 333.64 169.18zm29.12 47.47a26.82 26.82 0 0 0-38.56.13q-7.84 8.25-7.84 22.6 0 14.63 7.84 22.87a26.53 26.53 0 0 0 38.56-.13q7.85-8.39 7.85-22.74Q370.61 224.76 362.76 216.65z"></path></svg>