<?xml version="1.0" standalone="no"?>
<!DOCTYPE svg PUBLIC "-//W3C//DTD SVG 20010904//EN"
 "http://www.w3.org/TR/2001/REC-SVG-20010904/DTD/svg10.dtd">
<svg version="1.0" xmlns="http://www.w3.org/2000/svg"
 width="450.000000pt" height="450.000000pt" viewBox="0 0 450.000000 450.000000"
 preserveAspectRatio="xMidYMid meet">

<g transform="translate(0.000000,450.000000) scale(0.100000,-0.100000)"
fill="#000000" stroke="none">
<path d="M2135 3720 c-3 -6 1 -7 9 -4 18 7 21 14 7 14 -6 0 -13 -4 -16 -10z"/>
<path d="M2183 3723 c4 -3 44 -6 90 -6 76 0 78 0 27 -7 l-55 -7 47 -1 c56 -2
86 7 66 19 -15 10 -184 12 -175 2z"/>
<path d="M2380 3716 c0 -9 39 -13 51 -5 10 6 4 9 -18 9 -18 0 -33 -2 -33 -4z"/>
<path d="M1993 3703 c9 -2 23 -2 30 0 6 3 -1 5 -18 5 -16 0 -22 -2 -12 -5z"/>
<path d="M2450 3700 c-12 -8 -11 -10 5 -9 11 1 31 5 45 9 24 8 24 8 -5 9 -16
0 -37 -4 -45 -9z"/>
<path d="M2555 3690 c-8 -12 6 -41 16 -34 5 3 9 0 9 -5 0 -6 -6 -11 -12 -12
-7 -1 -2 -5 12 -9 19 -6 9 -8 -37 -9 l-63 -1 0 -40 0 -40 -40 0 -40 0 0 -40 0
-40 -40 0 -40 0 0 -40 0 -40 -44 0 c-37 0 -43 -3 -40 -17 2 -10 0 -25 -6 -33
-9 -13 -11 -13 -20 0 -15 23 -12 34 5 20 12 -10 15 -10 15 4 0 9 -4 16 -9 16
-5 0 -12 12 -14 28 -4 27 -4 27 -6 -3 -1 -23 -9 -35 -31 -49 -45 -26 -85 -14
-116 36 -14 22 -28 38 -30 35 -7 -6 34 -82 44 -82 20 -1 49 -30 45 -45 -3 -10
2 -20 11 -23 9 -4 16 -1 16 5 0 20 14 -2 17 -27 3 -23 0 -25 -37 -25 -38 0
-40 -2 -40 -31 0 -19 -4 -28 -11 -24 -6 4 -8 13 -5 21 3 8 0 11 -10 7 -9 -3
-13 -13 -9 -27 2 -11 2 -15 -1 -8 -8 17 -24 15 -24 -3 0 -8 5 -15 10 -15 6 0
10 -7 10 -15 0 -7 8 -18 17 -23 16 -10 26 -62 11 -62 -4 0 -8 -9 -8 -20 0 -11
-4 -20 -9 -20 -5 0 -8 -12 -5 -26 3 -18 1 -23 -7 -18 -9 5 -10 -2 -6 -25 4
-18 3 -30 -2 -26 -5 3 -13 0 -17 -6 -4 -8 -3 -9 4 -5 7 4 12 1 12 -8 0 -9 -9
-16 -21 -16 -11 0 -18 -4 -15 -9 8 -12 -85 -7 -109 6 -34 18 -69 18 -97 -1
-23 -15 -33 -16 -61 -7 -38 13 -71 69 -62 105 2 11 2 15 -1 9 -3 -7 -12 -13
-20 -13 -9 0 -12 5 -8 12 5 8 2 9 -10 5 -10 -4 -23 -7 -29 -8 -7 0 -1 -5 13
-11 14 -6 29 -10 34 -9 5 1 3 -6 -5 -15 -8 -10 -9 -15 -3 -11 16 9 48 -42 46
-70 -1 -13 4 -23 11 -24 6 0 3 -4 -8 -9 -19 -8 -19 -9 3 -9 12 -1 22 3 22 9 0
5 6 8 13 7 6 -2 2 1 -10 7 -13 5 -23 13 -23 18 0 12 14 10 28 -4 7 -7 12 -8
12 -4 0 5 6 3 14 -3 9 -8 16 -8 20 -2 4 6 14 7 23 4 10 -4 14 -2 10 4 -4 6 0
14 9 17 23 9 34 7 34 -4 0 -5 -7 -7 -15 -4 -8 4 -15 1 -15 -6 0 -9 13 -11 45
-8 24 3 42 2 40 -2 -3 -4 5 -10 18 -14 22 -5 56 -34 91 -77 16 -19 19 -39 19
-128 0 -58 -5 -133 -12 -165 -15 -81 -15 -210 1 -200 8 5 9 2 5 -9 -6 -15 17
-77 42 -117 6 -8 18 -33 27 -55 10 -22 24 -44 31 -48 7 -4 13 -13 13 -20 0 -7
-4 -6 -10 3 -7 11 -10 0 -10 -37 0 -68 -23 -125 -59 -146 -36 -21 -131 -23
-169 -3 -37 20 -85 72 -113 125 -37 67 -46 82 -59 94 -10 9 -12 8 -7 -5 9 -25
0 -22 -14 3 -8 15 -8 19 0 15 21 -14 11 7 -38 73 -27 36 -63 90 -81 119 -25
40 -35 50 -42 40 -7 -9 -8 -7 -3 8 3 13 -2 30 -14 45 -10 13 -22 39 -25 57 -4
17 -11 32 -15 32 -5 0 -6 11 -3 25 2 15 0 25 -7 25 -6 0 -10 3 -9 8 4 10 -5
12 -52 12 l-40 0 0 -40 0 -40 -40 0 -40 0 0 -40 0 -40 -40 0 -40 0 0 -40 c0
-39 -1 -40 -34 -40 -18 0 -55 -3 -82 -7 -36 -5 -43 -8 -29 -14 11 -4 30 -5 42
-2 13 3 23 0 23 -6 0 -6 -7 -11 -16 -11 -8 0 -12 -4 -9 -10 3 -5 -1 -10 -9
-10 -20 0 -86 -40 -86 -52 0 -6 -8 0 -18 13 l-19 22 -6 -38 c-3 -21 -1 -47 4
-57 6 -11 8 -31 5 -44 -5 -20 -12 -24 -46 -24 -40 0 -40 0 -40 -40 0 -22 -4
-40 -9 -40 -5 0 -12 -8 -14 -17 -3 -13 -5 -12 -6 5 0 13 -5 20 -11 17 -6 -4
-8 -11 -5 -16 4 -5 2 -9 -4 -9 -5 0 -12 6 -14 13 -3 7 -6 6 -6 -5 -1 -9 3 -19
8 -22 5 -3 7 -14 5 -24 -3 -9 0 -28 6 -42 l10 -25 -5 28 c-3 16 -1 27 5 27 6
0 8 5 5 10 -3 6 -1 10 4 10 13 0 14 -17 2 -25 -6 -3 -6 -18 -1 -35 5 -19 5
-28 -1 -25 -5 4 -9 1 -9 -4 0 -6 5 -11 11 -11 5 0 8 -4 4 -9 -10 -17 93 -247
118 -263 7 -4 9 -8 5 -8 -8 0 54 -102 80 -132 12 -15 18 -16 31 -5 14 11 14
10 2 -5 -11 -14 -11 -21 -1 -33 7 -8 16 -13 20 -10 4 3 7 -1 6 -8 -1 -13 87
-117 99 -117 3 0 3 5 -1 12 -4 7 -3 8 5 4 6 -4 9 -11 6 -16 -8 -12 73 -85 94
-85 9 0 16 -5 16 -11 0 -21 89 -89 104 -80 5 3 15 -4 24 -17 8 -12 61 -45 118
-73 134 -66 165 -78 180 -68 7 4 10 3 6 -2 -16 -26 245 -83 419 -91 308 -15
614 71 879 245 432 285 688 786 662 1298 -7 124 -35 291 -64 374 -37 107 -86
219 -94 214 -5 -3 -6 1 -4 8 7 19 -94 180 -107 172 -7 -4 -8 -2 -4 5 9 14 -41
84 -54 76 -4 -2 -7 3 -6 13 0 9 -5 16 -11 15 -7 -2 -12 1 -10 5 1 4 -21 34
-50 67 -47 52 -54 57 -70 44 -9 -8 -14 -9 -10 -2 4 6 4 13 0 16 -5 2 -2 2 5 1
6 -2 12 0 11 4 -1 12 -70 65 -84 65 -8 0 -12 4 -10 8 7 11 -90 80 -106 76 -8
-2 -11 -2 -7 0 15 8 -19 31 -113 78 -52 25 -103 51 -113 57 -11 6 -31 14 -45
18 -14 4 -35 11 -45 16 -13 5 -17 4 -13 -3 5 -7 0 -9 -13 -6 -11 3 -17 9 -15
14 3 4 -14 13 -37 18 -24 6 -55 15 -70 20 -16 5 -30 6 -33 1z m93 -41 c-10 -7
-9 -9 4 -9 9 0 18 6 21 13 3 6 5 2 4 -9 -1 -23 -7 -24 -47 -6 -19 8 -21 11 -7
11 10 1 15 5 12 11 -3 6 1 7 10 3 13 -5 14 -7 3 -14z m192 -59 c8 -5 12 -11 9
-14 -3 -3 -14 1 -25 9 -21 16 -8 20 16 5z m-5 -38 c-3 -3 -11 0 -18 7 -9 10
-8 11 6 5 10 -3 15 -9 12 -12z m52 3 c0 -8 -4 -12 -9 -9 -5 3 -6 10 -3 15 9
13 12 11 12 -6z m43 -5 c8 -5 11 -10 5 -10 -5 0 -17 5 -25 10 -8 5 -10 10 -5
10 6 0 17 -5 25 -10z m87 -46 c-3 -3 -12 -4 -19 -1 -8 3 -5 6 6 6 11 1 17 -2
13 -5z m-20 -30 c-3 -3 -12 -4 -19 -1 -8 3 -5 6 6 6 11 1 17 -2 13 -5z m-409
-124 c9 -16 25 -30 35 -30 9 0 17 -6 18 -12 0 -10 2 -10 6 0 5 13 31 16 57 6
12 -4 16 -20 16 -54 0 -42 -4 -52 -31 -74 -25 -21 -41 -26 -85 -26 -86 0 -137
36 -150 104 -5 29 -3 36 9 36 9 0 19 10 23 23 19 62 74 77 102 27z m-384 -43
c6 -5 1 -6 -11 -2 -12 3 -24 1 -28 -6 -6 -8 -10 -8 -16 2 -5 8 0 17 14 24 15
8 23 8 26 1 2 -6 9 -15 15 -19z m233 -79 c-3 -8 -6 -5 -6 6 -1 11 2 17 5 13 3
-3 4 -12 1 -19z m-357 -94 c0 -8 -5 -12 -10 -9 -6 4 -8 11 -5 16 9 14 15 11
15 -7z m-4 -209 c1 -8 -2 -13 -7 -9 -5 3 -9 0 -9 -7 0 -7 -3 -9 -6 -6 -4 4 -2
13 4 20 7 8 10 17 7 20 -3 4 -2 5 2 2 4 -3 8 -12 9 -20z m1191 17 c6 -4 14
-20 17 -35 2 -14 7 -31 11 -37 9 -15 65 -13 65 3 0 9 2 9 9 -1 4 -7 14 -12 22
-10 27 6 21 -41 -10 -72 -26 -26 -36 -30 -88 -30 -46 0 -66 5 -96 25 -43 30
-46 49 -16 102 31 56 57 73 86 55z m300 -74 c-3 -8 -6 -5 -6 6 -1 11 2 17 5
13 3 -3 4 -12 1 -19z m-1616 -36 c-13 -2 -27 0 -32 5 -6 6 3 7 23 4 28 -4 29
-6 9 -9z m43 -22 c-6 -6 -15 -5 -24 1 -12 9 -12 10 4 5 14 -5 17 -3 12 11 -6
15 -5 16 5 6 8 -8 10 -16 3 -23z m43 -122 c-3 -8 -6 -5 -6 6 -1 11 2 17 5 13
3 -3 4 -12 1 -19z m30 0 c-3 -8 -6 -5 -6 6 -1 11 2 17 5 13 3 -3 4 -12 1 -19z
m563 2 c-13 -9 -13 -10 0 -10 19 0 62 -63 66 -95 7 -70 -48 -145 -107 -145
-34 0 -70 16 -82 37 -5 7 -12 11 -16 9 -4 -3 -7 31 -7 74 0 44 2 78 4 75 2 -2
15 9 29 25 18 22 35 30 66 33 23 2 47 4 52 5 6 1 3 -3 -5 -8z m848 -119 c3
-18 9 -22 28 -18 18 3 24 0 24 -12 0 -25 -20 -41 -50 -41 -45 0 -59 25 -40 75
12 31 34 28 38 -4z m-641 -24 c7 -16 11 -33 8 -37 -7 -11 20 -20 60 -20 55 0
75 -65 35 -108 -26 -28 -64 -28 -90 0 -24 26 -25 46 -4 76 23 33 9 39 -18 8
-53 -60 -136 -32 -124 43 8 51 33 73 81 69 33 -2 42 -7 52 -31z m-800 -69 c-3
-8 -6 -5 -6 6 -1 11 2 17 5 13 3 -3 4 -12 1 -19z m-590 -45 c-3 -10 -5 -4 -5
12 0 17 2 24 5 18 2 -7 2 -21 0 -30z m630 -5 c-3 -8 -6 -5 -6 6 -1 11 2 17 5
13 3 -3 4 -12 1 -19z m648 -8 c-3 -5 1 -10 10 -10 19 0 91 -35 124 -61 13 -10
28 -16 34 -12 5 3 7 2 4 -3 -3 -6 16 -34 43 -62 27 -29 49 -54 48 -55 -3 -5
27 -77 32 -77 11 0 8 -67 -6 -118 -8 -29 -12 -58 -8 -65 4 -7 4 -9 -1 -5 -4 4
-22 -17 -40 -46 -32 -53 -115 -166 -145 -196 -8 -9 -26 -32 -40 -53 -14 -20
-28 -37 -32 -37 -5 0 -8 -6 -8 -14 0 -8 -4 -16 -8 -18 -5 -1 -25 -28 -44 -58
-20 -30 -46 -66 -58 -79 -70 -72 -219 -66 -261 11 -15 26 -29 149 -17 142 5
-3 8 3 8 12 0 9 19 51 43 93 80 141 78 132 75 361 -3 201 -2 206 22 255 31 61
71 86 154 95 33 4 65 8 69 9 5 0 5 -3 2 -9z m-225 -25 c-6 -8 -8 -20 -4 -27 5
-10 4 -10 -6 -1 -11 10 -11 15 0 28 7 8 15 15 17 15 3 0 0 -7 -7 -15z m-1020
-12 c0 -5 -7 -17 -15 -27 -13 -17 -15 -18 -15 -3 0 9 5 17 11 17 5 0 7 5 4 10
-3 6 -1 10 4 10 6 0 11 -3 11 -7z m1548 -5 c34 -34 -7 -116 -51 -102 -47 15
-60 51 -31 92 17 24 62 30 82 10z m63 -119 c13 -25 -2 -68 -23 -70 -28 -3 -53
4 -60 15 -12 17 -9 51 4 64 20 20 66 14 79 -9z m-1537 -5 c5 -14 4 -15 -9 -4
-17 14 -19 20 -6 20 5 0 12 -7 15 -16z m26 -49 c14 -19 14 -19 -2 -6 -10 7
-18 18 -18 24 0 6 1 8 3 6 1 -2 9 -13 17 -24z m-49 -12 c-12 -20 -14 -14 -5
12 4 9 9 14 11 11 3 -2 0 -13 -6 -23z m-441 -82 c5 -11 10 -30 11 -43 l0 -23
10 24 c9 23 10 24 32 5 12 -11 25 -23 29 -29 11 -15 10 -57 -3 -93 -11 -32
-61 -64 -88 -55 -62 19 -75 39 -86 127 -4 31 -14 63 -21 71 -20 20 -17 27 6
13 11 -7 20 -21 20 -31 0 -10 5 -15 10 -12 6 3 10 17 10 30 0 37 52 49 70 16z
m108 -171 c-1 -25 -3 -28 -16 -18 -9 8 -10 14 -3 16 6 2 11 10 11 18 0 8 2 14
4 14 3 0 4 -13 4 -30z m2182 -1 c0 -29 2 -31 30 -27 25 4 30 1 30 -17 0 -41
-46 -59 -92 -34 -17 9 -19 17 -14 52 8 48 13 57 32 57 9 0 14 -11 14 -31z
m-2378 -8 c16 -29 14 -41 -5 -41 -5 0 -7 7 -3 15 3 8 -1 21 -9 29 -16 16 -19
26 -7 26 4 0 14 -13 24 -29z m788 -36 c11 -13 10 -14 -4 -9 -9 3 -16 2 -16 -4
0 -6 6 -13 13 -15 9 -4 9 -6 0 -6 -16 -1 -24 14 -17 33 8 20 8 20 24 1z m-918
-37 c-6 -6 -7 0 -4 19 5 21 7 23 10 9 2 -10 0 -22 -6 -28z m8 -28 c0 -5 -2
-10 -4 -10 -3 0 -8 5 -11 10 -3 6 -1 10 4 10 6 0 11 -4 11 -10z m-3 -55 c-1
-22 -4 -30 -9 -22 -6 12 -1 57 7 57 2 0 3 -16 2 -35z m49 -95 c-3 14 -3 19 0
12 5 -10 9 -10 21 -1 12 11 12 9 2 -14 -7 -15 -16 -27 -20 -27 -11 0 -39 30
-39 42 0 6 9 0 21 -13 l20 -24 -5 25z m2300 -82 c5 -13 9 -39 9 -58 0 -34 2
-35 38 -36 24 -1 41 4 46 14 16 28 22 -47 7 -83 -32 -75 -121 -73 -161 5 -12
24 -13 37 -1 93 8 36 17 70 21 76 11 18 33 12 41 -11z m-2007 -65 c5 -10 18
-18 28 -18 11 0 19 -9 21 -22 7 -46 -79 -55 -107 -11 -10 16 -10 23 -2 26 6 2
11 12 11 23 0 24 35 26 49 2z m-211 -48 c-3 -3 -9 2 -12 12 -6 14 -5 15 5 6 7
-7 10 -15 7 -18z m26 -31 c5 -14 4 -15 -9 -4 -17 14 -19 20 -6 20 5 0 12 -7
15 -16z m1061 -181 c13 -12 15 -26 11 -54 -6 -35 -4 -37 24 -41 17 -3 32 -2
35 0 3 3 16 6 30 7 37 1 34 -47 -5 -87 -28 -28 -35 -30 -85 -26 -63 5 -89 24
-106 75 -9 29 -9 37 2 44 8 4 15 20 16 34 2 25 36 65 54 65 4 0 15 -8 24 -17z
m-387 -95 c7 -7 12 -24 12 -39 0 -29 21 -43 51 -34 16 5 19 1 19 -24 0 -66
-73 -93 -124 -46 -27 25 -33 52 -17 83 5 9 14 29 20 45 12 30 21 33 39 15z
m882 -88 c4 -19 12 -25 33 -27 15 -1 27 2 27 8 0 5 7 9 15 9 9 0 15 -9 15 -24
0 -17 -9 -28 -34 -40 -43 -20 -75 -20 -104 0 -22 15 -30 44 -12 44 5 0 7 7 4
15 -8 20 15 47 35 43 9 -2 18 -14 21 -28z"/>
<path d="M1831 3666 c-27 -10 -31 -14 -18 -19 9 -3 17 -2 17 2 0 5 17 13 38
19 20 5 28 10 17 10 -11 0 -35 -5 -54 -12z"/>
<path d="M1905 3660 c-3 -5 -1 -10 4 -10 6 0 11 5 11 10 0 6 -2 10 -4 10 -3 0
-8 -4 -11 -10z"/>
<path d="M1860 3650 c-12 -8 -10 -10 8 -10 13 0 20 4 17 10 -7 12 -6 12 -25 0z"/>
<path d="M1752 3637 c-8 -10 -6 -13 11 -14 15 -2 18 0 8 6 -11 7 -11 9 0 14 8
3 9 6 3 6 -6 1 -16 -5 -22 -12z"/>
<path d="M1858 3623 c7 -3 16 -2 19 1 4 3 -2 6 -13 5 -11 0 -14 -3 -6 -6z"/>
<path d="M1660 3600 c-9 -6 -10 -10 -3 -10 6 0 15 5 18 10 8 12 4 12 -15 0z"/>
<path d="M1650 3576 c0 -2 7 -9 15 -16 9 -7 15 -8 15 -2 0 5 -7 12 -15 16 -8
3 -15 4 -15 2z"/>
<path d="M2086 3524 c-17 -16 -12 -39 5 -28 6 3 18 -1 27 -9 9 -8 27 -18 40
-21 12 -4 22 -13 22 -19 0 -7 7 -4 15 7 8 10 20 16 27 13 10 -3 13 6 13 32 0
35 -1 36 -16 22 -9 -9 -19 -23 -21 -31 -4 -11 -9 -8 -16 11 -16 41 -67 53 -96
23z"/>
<path d="M1480 3510 c-8 -5 -10 -10 -5 -10 6 0 17 5 25 10 8 5 11 10 5 10 -5
0 -17 -5 -25 -10z"/>
<path d="M1426 3475 c-11 -8 -15 -15 -9 -15 7 0 15 5 18 11 4 6 14 8 22 5 8
-3 11 -1 8 4 -8 13 -16 12 -39 -5z"/>
<path d="M2000 3445 c0 -8 4 -15 10 -15 5 0 7 7 4 15 -4 8 -8 15 -10 15 -2 0
-4 -7 -4 -15z"/>
<path d="M2040 3450 c0 -5 5 -10 10 -10 6 0 10 5 10 10 0 6 -4 10 -10 10 -5 0
-10 -4 -10 -10z"/>
<path d="M1385 3439 c-11 -17 1 -21 15 -4 8 9 8 15 2 15 -6 0 -14 -5 -17 -11z"/>
<path d="M2230 3418 c0 -16 5 -28 10 -28 13 0 13 20 0 40 -8 12 -10 9 -10 -12z"/>
<path d="M1942 3405 c0 -16 2 -22 5 -12 2 9 2 23 0 30 -3 6 -5 -1 -5 -18z"/>
<path d="M2005 3348 c0 -26 3 -48 8 -48 4 0 7 5 7 12 0 9 3 9 12 0 7 -7 23
-12 38 -11 l25 1 -25 7 c-15 4 -29 18 -35 36 -18 54 -30 55 -30 3z"/>
<path d="M1489 3353 c-13 -9 -25 -17 -25 -17 -1 -1 -5 -12 -8 -26 -6 -23 -6
-23 7 -7 15 18 37 22 53 8 5 -5 27 -11 49 -14 22 -4 35 -4 28 -1 -7 3 -10 11
-7 18 6 15 -11 31 -48 45 -19 7 -31 6 -49 -6z"/>
<path d="M1164 3248 l-29 -33 33 29 c17 17 32 31 32 33 0 8 -8 1 -36 -29z"/>
<path d="M2051 3271 c-9 -6 -7 -10 8 -14 12 -3 21 -1 21 3 0 14 -15 19 -29 11z"/>
<path d="M1876 3211 c8 -8 54 -7 54 1 0 5 -13 7 -30 6 -16 -1 -27 -4 -24 -7z"/>
<path d="M1101 3177 c-13 -21 -12 -21 5 -5 10 10 16 20 13 22 -3 3 -11 -5 -18
-17z"/>
<path d="M1565 3182 c-22 -12 -38 -13 -67 -5 -43 12 -51 2 -13 -15 37 -17 67
-14 94 9 30 25 24 30 -14 11z"/>
<path d="M1765 3190 c3 -5 8 -10 11 -10 2 0 4 5 4 10 0 6 -5 10 -11 10 -5 0
-7 -4 -4 -10z"/>
<path d="M1790 3190 c0 -5 6 -10 14 -10 8 0 18 5 21 10 3 6 -3 10 -14 10 -12
0 -21 -4 -21 -10z"/>
<path d="M1877 3150 c-10 -12 -23 -18 -29 -14 -7 4 -8 3 -4 -5 4 -6 2 -19 -6
-28 -11 -14 -11 -16 1 -9 10 7 12 3 6 -15 -7 -22 -7 -22 9 -6 10 9 29 20 44
24 15 3 30 10 33 15 3 5 19 2 35 -6 16 -8 37 -17 48 -21 11 -3 16 -11 12 -21
-3 -9 -2 -12 5 -9 6 4 7 -3 3 -19 -4 -18 -2 -26 7 -26 7 0 10 3 7 6 -4 3 -2
19 2 35 7 25 5 34 -18 57 -18 18 -37 28 -57 27 -17 0 -36 7 -43 18 -17 22 -34
22 -55 -3z m27 -12 c-5 -8 -2 -9 9 -5 10 3 17 2 17 -3 0 -6 -8 -10 -19 -10
-10 0 -24 -7 -31 -15 -14 -17 -32 -11 -24 10 3 8 12 11 21 8 10 -4 14 -2 10 4
-4 6 -1 14 5 16 19 8 20 8 12 -5z m86 -18 c8 -5 12 -11 9 -14 -3 -3 -14 1 -25
9 -21 16 -8 20 16 5z"/>
<path d="M1580 3150 c-13 -8 -12 -10 3 -10 9 0 17 5 17 10 0 12 -1 12 -20 0z"/>
<path d="M1760 3125 c0 -8 7 -15 15 -15 8 0 15 7 15 15 0 8 -7 15 -15 15 -8 0
-15 -7 -15 -15z"/>
<path d="M1070 3120 c-8 -5 -12 -12 -9 -15 4 -3 12 1 19 10 14 17 11 19 -10 5z"/>
<path d="M1035 3090 c-3 -5 -1 -10 4 -10 6 0 11 5 11 10 0 6 -2 10 -4 10 -3 0
-8 -4 -11 -10z"/>
<path d="M1550 3085 c0 -8 7 -15 15 -15 9 0 12 6 9 15 -4 8 -10 15 -15 15 -5
0 -9 -7 -9 -15z"/>
<path d="M1092 3076 c7 -8 15 -12 17 -11 5 6 -10 25 -20 25 -5 0 -4 -6 3 -14z"/>
<path d="M1764 3063 c4 -9 2 -20 -4 -23 -8 -5 -6 -9 5 -14 14 -5 16 -2 13 19
-3 13 0 26 6 29 6 2 3 5 -8 5 -13 1 -16 -4 -12 -16z"/>
<path d="M1016 3061 c-2 -3 -1 -14 3 -23 5 -15 7 -14 17 6 8 18 8 23 -3 23 -8
0 -15 -3 -17 -6z"/>
<path d="M1800 3051 c0 -21 -23 -45 -33 -34 -4 3 -7 1 -7 -5 0 -7 7 -12 15
-12 8 0 15 -5 15 -11 0 -5 4 -8 9 -4 15 9 38 59 33 73 -6 19 -32 14 -32 -7z
m17 -13 c-3 -8 -6 -5 -6 6 -1 11 2 17 5 13 3 -3 4 -12 1 -19z"/>
<path d="M1600 3041 c0 -30 17 -34 22 -6 4 17 1 25 -8 25 -8 0 -14 -9 -14 -19z"/>
<path d="M1728 3053 c7 -3 16 -2 19 1 4 3 -2 6 -13 5 -11 0 -14 -3 -6 -6z"/>
<path d="M1498 3043 c7 -3 16 -2 19 1 4 3 -2 6 -13 5 -11 0 -14 -3 -6 -6z"/>
<path d="M1697 3034 c4 -12 3 -15 -5 -10 -7 4 -12 3 -12 -2 0 -15 22 -20 50
-11 24 7 24 7 3 8 -13 1 -22 6 -20 12 1 6 -4 14 -11 16 -8 3 -10 -1 -5 -13z"/>
<path d="M1546 2959 c3 -5 -3 -9 -13 -10 -10 0 -13 -3 -7 -5 6 -3 21 -1 34 4
l24 9 -22 5 c-12 4 -20 2 -16 -3z"/>
<path d="M1812 2923 c2 -17 10 -29 20 -31 13 -2 16 1 12 12 -3 9 -11 13 -16
10 -6 -4 -8 2 -3 15 4 13 2 21 -5 21 -6 0 -10 -12 -8 -27z"/>
<path d="M1560 2928 c0 -4 7 -8 15 -8 8 0 15 4 15 8 0 5 -7 9 -15 9 -8 0 -15
-4 -15 -9z"/>
<path d="M1525 2920 c3 -6 -4 -14 -17 -19 -13 -6 -16 -10 -8 -10 19 0 52 24
43 32 -10 11 -25 8 -18 -3z"/>
<path d="M1440 2890 c0 -5 7 -7 15 -4 8 4 15 8 15 10 0 2 -7 4 -15 4 -8 0 -15
-4 -15 -10z"/>
<path d="M1533 2889 c-7 -7 -13 -18 -13 -23 0 -6 5 -4 10 4 8 13 10 12 10 -2
0 -10 -5 -18 -11 -18 -5 0 3 -14 19 -31 24 -26 28 -37 23 -62 -8 -38 -50 -59
-81 -39 -28 17 -39 15 -13 -3 21 -15 38 -65 21 -65 -5 0 -7 -4 -3 -9 3 -5 -4
-13 -16 -16 -16 -5 -19 -12 -15 -30 4 -14 1 -27 -6 -31 -8 -5 -9 -2 -5 9 3 9
2 19 -4 22 -5 4 -7 10 -4 15 3 5 -3 11 -13 14 -30 10 -43 49 -27 80 8 15 10
28 4 31 -5 4 -9 -2 -9 -12 -1 -17 -1 -17 -14 0 -7 9 -17 17 -21 17 -4 0 -2 -7
5 -15 7 -8 9 -15 5 -15 -4 0 -1 -8 6 -17 12 -15 12 -16 -3 -10 -12 4 -16 1
-15 -12 1 -12 6 -17 16 -13 12 4 11 1 -2 -18 -19 -27 -22 -44 -7 -35 6 3 10 2
10 -4 0 -5 -6 -12 -12 -15 -7 -3 -2 -3 11 0 16 4 21 3 17 -5 -4 -6 -3 -11 3
-11 18 0 21 17 6 30 -8 7 -15 19 -15 28 0 12 5 11 23 -6 23 -22 27 -32 29 -82
0 -14 3 -19 5 -12 3 6 10 9 16 5 6 -4 8 0 4 10 -3 9 -2 19 3 22 6 4 10 17 10
31 0 13 4 24 10 24 9 0 39 49 42 67 0 5 10 15 22 23 44 30 65 53 59 63 -4 6 0
8 8 5 8 -3 23 0 34 8 17 12 17 14 2 14 -9 0 -17 -4 -17 -9 0 -5 -10 -6 -22 -3
-47 14 -61 29 -67 71 -5 34 -8 40 -18 30z m62 -118 c3 -5 1 -12 -5 -16 -5 -3
-10 1 -10 9 0 18 6 21 15 7z m-70 -80 c3 -5 2 -12 -3 -15 -5 -3 -9 1 -9 9 0
17 3 19 12 6z"/>
<path d="M1470 2844 c0 -11 -6 -15 -18 -12 -15 4 -18 1 -14 -18 2 -14 11 -24
21 -23 10 0 11 2 4 6 -20 7 -15 23 5 16 9 -3 14 -3 10 2 -4 4 3 16 15 26 l22
18 -22 1 c-15 0 -23 -6 -23 -16z"/>
<path d="M920 2830 c0 -5 5 -10 11 -10 5 0 7 5 4 10 -3 6 -8 10 -11 10 -2 0
-4 -4 -4 -10z"/>
<path d="M855 2714 c4 -25 3 -34 -5 -29 -6 3 -9 3 -8 -2 1 -4 -3 -18 -11 -31
-7 -13 -10 -28 -7 -35 2 -7 5 -5 5 5 1 9 9 24 18 34 18 18 26 94 10 94 -5 0
-6 -16 -2 -36z"/>
<path d="M1440 2740 c-8 -5 -11 -12 -8 -16 4 -3 14 1 23 10 18 17 9 21 -15 6z"/>
<path d="M1199 2705 c-1 -11 -1 -26 1 -34 1 -10 -9 -12 -39 -9 -32 3 -41 0
-44 -14 -3 -11 -1 -15 5 -12 6 4 8 -2 4 -17 -6 -20 -5 -21 4 -6 13 20 36 23
43 4 2 -7 16 -13 31 -15 21 -1 26 2 26 23 0 13 -5 27 -11 31 -6 3 -9 14 -6 24
2 10 1 24 -4 31 -7 11 -9 9 -10 -6z"/>
<path d="M1332 2708 c-16 -16 -15 -41 1 -36 6 3 13 14 13 26 1 26 2 26 -14 10z"/>
<path d="M1253 2702 c-18 -11 1 -36 22 -28 9 3 15 11 13 18 -5 15 -20 20 -35
10z"/>
<path d="M1255 2650 c3 -5 10 -10 16 -10 5 0 9 5 9 10 0 6 -7 10 -16 10 -8 0
-12 -4 -9 -10z"/>
<path d="M845 2620 c-4 -17 -5 -34 -2 -36 3 -3 8 9 12 26 4 17 5 34 2 36 -3 3
-8 -9 -12 -26z"/>
<path d="M1244 2598 c-18 -20 -18 -21 -1 -15 10 4 23 7 28 7 5 0 9 7 9 15 0
21 -14 19 -36 -7z"/>
<path d="M1320 2590 c0 -5 5 -10 11 -10 5 0 7 5 4 10 -3 6 -8 10 -11 10 -2 0
-4 -4 -4 -10z"/>
<path d="M1253 2573 c-7 -2 -13 -15 -13 -28 0 -13 -7 -28 -16 -33 -15 -8 -15
-10 0 -15 9 -4 16 -2 16 4 0 6 9 8 23 3 21 -6 21 -6 5 13 -10 11 -18 25 -18
31 0 6 8 16 18 21 17 11 7 13 -15 4z"/>
<path d="M1274 2549 c-3 -6 -1 -16 5 -22 8 -8 11 -5 11 11 0 24 -5 28 -16 11z"/>
<path d="M792 2495 c0 -16 2 -22 5 -12 2 9 2 23 0 30 -3 6 -5 -1 -5 -18z"/>
<path d="M1120 2501 c0 -4 16 -15 35 -24 32 -15 36 -15 42 -2 3 9 4 17 2 19
-9 8 -79 14 -79 7z"/>
<path d="M1260 2456 c0 -9 5 -16 10 -16 6 0 10 4 10 9 0 6 -4 13 -10 16 -5 3
-10 -1 -10 -9z"/>
<path d="M1120 2441 c0 -5 8 -9 18 -9 9 1 28 -2 41 -6 17 -6 22 -5 19 5 -5 16
-78 25 -78 10z"/>
<path d="M780 2419 c0 -13 5 -31 10 -39 7 -11 8 -5 4 20 -8 43 -14 51 -14 19z"/>
<path d="M791 2338 c0 -10 -5 -18 -11 -18 -6 0 -10 -29 -10 -67 0 -51 3 -64
11 -53 8 11 9 5 6 -27 -4 -33 -2 -40 9 -36 10 3 14 22 14 61 0 51 -1 54 -15
36 -12 -16 -14 -16 -15 -3 0 9 5 30 11 47 6 17 9 41 6 54 -3 15 -5 17 -6 6z"/>
<path d="M1020 2211 c0 -6 5 -13 10 -16 6 -3 10 -2 10 4 0 5 8 12 18 14 10 3
6 5 -10 6 -16 0 -28 -3 -28 -8z"/>
<path d="M782 2095 c0 -16 2 -22 5 -12 2 9 2 23 0 30 -3 6 -5 -1 -5 -18z"/>
</g>
</svg>
